HIERARCHY
ROOT Hips
{
  OFFSET -131.282 90.5351 -41.2874
  CHANNELS 6 Xposition Yposition Zposition Zrotation Xrotation Yrotation
  JOINT RightUpLeg
  {
    OFFSET -8.9458 -8.66707 0.101652
    CHANNELS 3 Zrotation Xrotation Yrotation
    JOINT RightLeg
    {
      OFFSET 0 -44.4227 1.3727
      CHANNELS 3 Zrotation Xrotation Yrotation
      JOINT RightFoot
      {
        OFFSET 0.253549 -42.0924 -1.46059
        CHANNELS 3 Zrotation Xrotation Yrotation
        JOINT RightToes
        {
          OFFSET 0.04 -4.41509 8.4991
          CHANNELS 3 Zrotation Xrotation Yrotation
          End Site
          {
            OFFSET -0.08 -0.137448 9.77979
          }
        }
      }
    }
  }
  JOINT Spine
  {
    OFFSET 0 11.8905 0
    CHANNELS 3 Zrotation Xrotation Yrotation
    JOINT Spine1
    {
      OFFSET 0 25.6574 0.127663
      CHANNELS 3 Zrotation Xrotation Yrotation
      JOINT HEad
      {
        OFFSET 0 8.73416 0.011341
        CHANNELS 3 Zrotation Xrotation Yrotation
        End Site
        {
          OFFSET -0.29 12.7742 2.51395
        }
      }
      JOINT LeftShoulder1
      {
        OFFSET 8.99 -0.362252 -0.22
        CHANNELS 3 Zrotation Xrotation Yrotation
        JOINT LeftArm
        {
          OFFSET 10.2827 -0.00338 0.322123
          CHANNELS 3 Zrotation Xrotation Yrotation
          JOINT LeftForeArm
          {
            OFFSET 32.7669 0.099144 -1.42434
            CHANNELS 3 Zrotation Xrotation Yrotation
            JOINT LeftHand
            {
              OFFSET 27.5643 0.085362 1.02216
              CHANNELS 3 Zrotation Xrotation Yrotation
              End Site
              {
                OFFSET 16.7443 -0.6 1.50291
              }
            }
          }
        }
      }
      JOINT RightShoulder
      {
        OFFSET -8.99 -0.362252 -0.22
        CHANNELS 3 Zrotation Xrotation Yrotation
        JOINT RightArm
        {
          OFFSET -10.2827 -0.00338 0.322123
          CHANNELS 3 Zrotation Xrotation Yrotation
          JOINT RightForeArm
          {
            OFFSET -32.8971 0.099144 -1.42434
            CHANNELS 3 Zrotation Xrotation Yrotation
            JOINT RightHand
            {
              OFFSET -27.4921 0.085362 1.02216
              CHANNELS 3 Zrotation Xrotation Yrotation
              End Site
              {
                OFFSET -16.6312 -0.6 1.50291
              }
            }
          }
        }
      }
    }
  }
  JOINT LeftUpLeg
  {
    OFFSET 8.9458 -8.66707 0.101652
    CHANNELS 3 Zrotation Xrotation Yrotation
    JOINT LeftLeg
    {
      OFFSET 0 -44.4227 1.3727
      CHANNELS 3 Zrotation Xrotation Yrotation
      JOINT LeftFoot
      {
        OFFSET -0.253549 -42.0924 -1.46059
        CHANNELS 3 Zrotation Xrotation Yrotation
        JOINT LeftToes
        {
          OFFSET -0.04 -4.41509 8.4991
          CHANNELS 3 Zrotation Xrotation Yrotation
          End Site
          {
            OFFSET 0.08 -0.047448 9.77979
          }
        }
      }
    }
  }
}
MOTION
Frames:	11
Frame Time:	0.0166667
-131.282 90.5351 -41.2874 -1.11531 1.52572 3.44188 -7.30721 2.31992 -0.468191 6.36955 29.8642 -3.81714 0.992931 -7.47969 -0.172142 -31.0745 -40.0821 -17.0315 -0.48628 6.00642 4.47762 0.98108 11.796 9.11109 -10.7339 -5.11729 8.82208 7.95139e-016 3.18055e-015 -0 -75.0949 -32.9422 -19.4909 -3.8359 33.1945 -112.2 27.0551 2.36015 -27.2486 15.9361 3.97723 18.7828 67.3404 -17.1239 45.3483 -23.2907 20.0507 150.1 -0.932975 10.0073 -60.6333 7.96466 -31.7162 7.92878 14.0825 56.3141 -17.3345 -17.0061 -10.3017 -0.353069 6.37919 -8.06273 2.06462 
-130.892 89.8369 -42.0693 -1.28379 1.27808 4.05144 -6.96406 3.23087 -0.634472 5.93878 28.5877 -4.53382 -0.761548 -9.25873 -0.193098 -30.7314 -39.8056 -16.8185 -0.51484 6.25701 4.56938 1.07475 12.2457 9.33892 -10.6487 -6.94548 8.50366 1.59028e-015 0 -0 -75.5942 -31.1675 -18.0321 -4.5602 32.9891 -111.951 26.097 2.59637 -27.4524 15.5631 3.89691 18.727 67.9691 -18.5877 47.0299 -23.2063 22.1914 149.916 -2.13644 10.6244 -59.5601 8.93684 -34.6534 7.87705 14.9906 59.5444 -20.6192 -19.27 -6.89829 0.155745 8.36951 -10.8572 0.934429 
-130.383 89.4825 -42.8008 -1.2685 1.1433 4.23237 -6.95832 3.46789 -0.88941 5.37765 27.9307 -4.84867 -2.07505 -10.29 -0.237438 -29.9786 -39.1248 -16.4944 -0.58617 6.50625 4.72236 0.929979 12.6844 9.71574 -10.4539 -8.70728 8.46291 -7.95139e-016 3.18055e-015 -0 -75.6544 -29.4526 -16.2183 -5.30259 32.5715 -112.165 24.8746 2.86641 -27.864 15.1739 3.82301 18.7201 68.9678 -20.6667 48.5642 -22.8593 25.6122 149.681 -4.13591 11.5882 -57.8438 10.2011 -37.5957 8.00375 15.284 62.1056 -23.4995 -22.0147 -1.80938 1.13468 10.3207 -14.0187 -1.28578 
-129.738 89.4828 -43.4203 -1.07073 1.15367 3.91472 -7.40536 2.93567 -1.16466 4.83272 28.0954 -4.73099 -2.79408 -10.3149 -0.254942 -29.4561 -38.569 -16.4418 -0.710739 6.69997 4.92794 0.537687 13.0163 10.209 -10.1205 -10.1481 8.78218 -7.95139e-016 3.18055e-015 -3.18055e-015 -75.1206 -27.9968 -14.1176 -6.03141 31.9831 -112.803 23.3747 3.18081 -28.4966 14.8081 3.76264 18.7634 70.216 -22.9627 49.7288 -22.2584 29.7759 149.352 -6.59274 12.6674 -55.68 11.7249 -40.059 8.35856 14.6031 63.6872 -25.0615 -24.8885 3.65378 2.45216 11.5572 -16.7393 -4.46862 
-128.966 89.8246 -43.9064 -0.708579 1.31702 3.09162 -8.30234 1.57187 -1.45861 4.36704 29.1739 -4.22301 -2.86843 -9.24141 -0.222284 -29.4074 -38.3747 -16.7566 -0.930094 6.80145 5.1657 -0.0726818 13.1641 10.7657 -9.66241 -11.07 9.49554 -1.59028e-015 -6.36111e-015 -0 -73.8559 -27.0825 -11.8584 -6.70205 31.3309 -113.745 21.6894 3.53109 -29.3146 14.5245 3.72924 18.8735 71.4263 -25.0641 50.323 -21.4173 34.0127 148.872 -9.12794 13.6556 -53.3376 13.3754 -41.6723 8.88722 12.9213 64.1135 -24.7542 -27.0779 8.30095 3.75797 12.0121 -18.5511 -7.62514 
-128.1 90.4467 -44.2705 -0.228868 1.60374 1.8297 -9.51059 -0.630875 -1.84333 3.93972 31.1788 -3.41183 -2.33496 -7.16581 -0.158346 -29.6624 -38.4418 -17.2389 -1.26164 6.79742 5.40289 -0.827666 13.0906 11.3159 -9.14021 -11.3769 10.5754 1.59028e-015 6.36111e-015 3.18055e-015 -71.7397 -27.0569 -9.58774 -7.26397 30.7817 -114.787 20.0574 3.86702 -30.2436 14.3878 3.74017 19.081 72.2308 -26.6465 50.2149 -20.3759 37.6652 148.223 -11.4116 14.4332 -51.1227 14.941 -42.2441 9.4057 10.5897 63.3349 -22.5536 -27.7022 11.4682 4.6026 12.0914 -19.4445 -9.58428 
-127.175 91.2345 -44.5301 0.290975 1.94758 0.266985 -10.7982 -3.57741 -2.42448 3.42382 34.0349 -2.39755 -1.27609 -4.34657 -0.112834 -29.7596 -38.4557 -17.4474 -1.66397 6.69225 5.60212 -1.61648 12.8057 11.776 -8.64528 -11.0908 11.9376 1.59028e-015 3.18055e-015 -6.36111e-015 -68.6709 -28.2898 -7.43214 -7.69017 30.5469 -115.626 18.849 4.08978 -31.1752 14.4463 3.81075 19.4174 72.3227 -27.5129 49.4061 -19.2448 40.2117 147.469 -13.2131 14.9707 -49.3167 16.2116 -41.7465 9.67198 8.13911 61.4022 -18.8486 -26.3903 12.9201 4.70117 11.937 -19.3011 -9.82882 
-126.222 92.0405 -44.6919 0.758746 2.26432 -1.39206 -11.9299 -7.04079 -3.26708 2.68981 37.5495 -1.30334 0.193428 -1.13034 -0.139917 -29.2362 -38.1234 -16.8971 -2.05094 6.50347 5.72605 -2.31352 12.3626 12.0546 -8.26749 -10.3359 13.4632 -7.95139e-016 6.36111e-015 1.59028e-015 -64.5968 -31.0883 -5.48785 -8.02183 30.8592 -115.831 18.4571 4.08543 -31.9465 14.707 3.94676 19.8953 71.5894 -27.6053 48.0728 -18.2174 41.3732 146.754 -14.4135 15.2953 -48.1153 17.0549 -40.2845 9.50997 6.04147 58.4682 -14.3027 -23.5763 12.6114 4.11354 11.1949 -17.6501 -8.54303 
-125.263 92.7216 -44.7561 1.09182 2.47652 -2.89089 -12.7621 -10.6804 -4.33015 1.75554 41.402 -0.34025 1.89897 2.1485 -0.270019 -28.0666 -37.4444 -15.4496 -2.33058 6.26126 5.73714 -2.80916 11.8457 12.0637 -8.06342 -9.29655 15.0247 5.29669e-031 -6.36111e-015 4.77083e-015 -59.587 -35.5434 -3.86133 -8.38997 31.9129 -114.856 19.1076 3.80361 -32.2999 15.1183 4.13733 20.4913 70.167 -27.0132 46.5447 -17.506 41.1829 146.222 -14.9925 15.45 -47.59 17.4497 -38.0776 8.90425 4.56879 54.7956 -9.73525 -20.303 10.7151 3.19245 9.46776 -14.2847 -6.27969 
-124.309 93.1758 -44.7341 1.243 2.53013 -3.95677 -13.2973 -14.1037 -5.46271 0.923381 45.1872 0.127329 3.5907 5.25277 -0.491208 -26.8555 -36.8504 -13.5771 -2.44314 6.0075 5.59978 -3.03853 11.3511 11.7353 -8.04018 -8.1667 16.508 -7.95139e-016 -9.54166e-015 1.59028e-015 -53.9695 -41.3532 -2.77512 -8.99993 33.7547 -112.121 20.6866 3.34246 -31.9067 15.5666 4.35084 21.1421 68.3932 -25.972 45.2259 -17.2482 39.9866 145.911 -15.0185 15.4726 -47.6785 17.4719 -35.438 8.01535 3.75652 50.7472 -5.94699 -17.6091 7.75307 2.315 6.93245 -9.92582 -3.60997 
-123.364 93.3647 -44.6591 1.22119 2.39757 -4.35844 -13.6646 -16.943 -6.47708 0.734727 48.4898 -0.360661 5.00406 8.06072 -0.753665 -26.4216 -36.9685 -12.1025 -2.38409 5.7898 5.29033 -2.99924 10.9668 11.0413 -8.16158 -7.11282 17.8233 0 3.18055e-015 -0 -48.4893 -47.8006 -2.71136 -10.1261 36.198 -107.163 22.7128 2.9478 -30.546 15.8935 4.5375 21.7589 66.6979 -24.819 44.4992 -17.4682 38.3612 145.715 -14.6463 15.3992 -48.2029 17.2492 -32.7347 7.11822 3.44283 46.7492 -3.55248 -16.0071 4.48294 1.66027 4.38611 -5.9459 -1.02023 
